<svg xmlns="http://www.w3.org/2000/svg" width="12.699" height="12.7" viewBox="0 0 12.699 12.7">
  <g id="noun_dashboard_1943893" fill="#aaa" style="mix-blend-mode: normal;isolation: isolate">
    <g id="Group_7741" data-name="Group 7741" transform="translate(0 0)">
      <path id="Path_38279" data-name="Path 38279" d="M8.861,3.488A.49.49,0,0,0,8.373,3H3.488A.49.49,0,0,0,3,3.488V8.373a.49.49,0,0,0,.488.488H8.373a.49.49,0,0,0,.488-.488Z" transform="translate(-3 -3)"/>
      <path id="Path_38280" data-name="Path 38280" d="M22.861,3.488A.49.49,0,0,0,22.373,3H17.488A.49.49,0,0,0,17,3.488V8.373a.49.49,0,0,0,.488.488h4.884a.49.49,0,0,0,.488-.488Z" transform="translate(-10.162 -3)"/>
      <path id="Path_38281" data-name="Path 38281" d="M17.488,22.861h4.884a.49.49,0,0,0,.488-.488V17.488A.49.49,0,0,0,22.373,17H17.488a.49.49,0,0,0-.488.488v4.884A.49.49,0,0,0,17.488,22.861Z" transform="translate(-10.162 -10.162)"/>
      <path id="Path_38282" data-name="Path 38282" d="M8.373,17H3.488A.49.49,0,0,0,3,17.488v4.884a.49.49,0,0,0,.488.488H8.373a.49.49,0,0,0,.488-.488V17.488A.49.49,0,0,0,8.373,17Z" transform="translate(-3 -10.162)"/>
    </g>
  </g>
</svg>
