<svg xmlns="http://www.w3.org/2000/svg" width="29.078" height="14.035" viewBox="0 0 29.078 14.035">
  <g id="noun-streaming-2146931" transform="translate(-84 -151.464)">
    <path id="Path_193112" data-name="Path 193112" d="M556.486,152.1a.958.958,0,0,0-1.714.857,12.2,12.2,0,0,1,1.316,5.632,12.6,12.6,0,0,1-1.316,5.632.944.944,0,0,0,.429,1.286,1.079,1.079,0,0,0,.428.092.981.981,0,0,0,.857-.52,14.522,14.522,0,0,0,0-12.978Z" transform="translate(-444.938 -0.097)" fill="#aaa"/>
    <path id="Path_193113" data-name="Path 193113" d="M86.816,151.572A.944.944,0,0,0,85.53,152a14.522,14.522,0,0,0,0,12.978.915.915,0,0,0,.857.52,1.079,1.079,0,0,0,.429-.092.97.97,0,0,0,.428-1.286,12.32,12.32,0,0,1-1.347-5.632,12.692,12.692,0,0,1,1.316-5.632.958.958,0,0,0-.4-1.286Z" transform="translate(0 0)" fill="#aaa"/>
    <path id="Path_193114" data-name="Path 193114" d="M484.641,187.183a.97.97,0,0,0-.429,1.286,8.172,8.172,0,0,1,0,7.408.944.944,0,0,0,.429,1.286,1.079,1.079,0,0,0,.429.092.98.98,0,0,0,.857-.52,10.243,10.243,0,0,0,0-9.122,1,1,0,0,0-1.286-.428Z" transform="translate(-378.235 -33.682)" fill="#aaa"/>
    <path id="Path_193115" data-name="Path 193115" d="M165.315,186.852a.944.944,0,0,0-1.286.429,10.243,10.243,0,0,0,0,9.122.915.915,0,0,0,.857.52.942.942,0,0,0,.857-1.377,8.172,8.172,0,0,1,0-7.408.944.944,0,0,0-.428-1.286Z" transform="translate(-74.642 -33.352)" fill="#aaa"/>
    <path id="Path_193116" data-name="Path 193116" d="M247.827,171.92a5.907,5.907,0,1,0,5.908,5.907A5.931,5.931,0,0,0,247.827,171.92Zm1.959,6.214-2.724,1.806a.352.352,0,0,1-.551-.306v-3.612a.361.361,0,0,1,.551-.306l2.724,1.806a.409.409,0,0,1,0,.612Z" transform="translate(-149.288 -19.338)" fill="#aaa"/>
  </g>
</svg>
