<svg xmlns="http://www.w3.org/2000/svg" width="13.793" height="20.101" viewBox="0 0 13.793 20.101">
  <path id="trending" d="M11.185,5.22a.589.589,0,0,0-1.093.3,1.3,1.3,0,1,1-2.607,0V.589A.589.589,0,0,0,6.48.173,28.794,28.794,0,0,0,3.253,4.2,22.871,22.871,0,0,0,1.028,8.353,13.148,13.148,0,0,0,0,13.2a6.9,6.9,0,0,0,13.793,0A15.734,15.734,0,0,0,11.185,5.22Zm-.359,7.831a.589.589,0,1,1-1.178,0v-1.1L6.716,14.882a.589.589,0,0,1-.833,0L4.516,13.514l-.922.922a.589.589,0,0,1-.833-.833L4.1,12.265a.589.589,0,0,1,.833,0L6.3,13.633l2.516-2.516h-1.1a.589.589,0,1,1,0-1.178h2.523a.589.589,0,0,1,.589.589v2.523Zm0,0" transform="translate(0 0)" fill="#aaa"/>
</svg>
