<svg xmlns="http://www.w3.org/2000/svg" width="20.531" height="16.423" viewBox="0 0 20.531 16.423">
  <g id="noun_users_78729" transform="translate(584.82 -372.231)">
    <path id="Path_193110" data-name="Path 193110" d="M-573.711,382.945a12.3,12.3,0,0,1-3.119-2.115v-.473a5.072,5.072,0,0,0,.974-1.752c.031-.1.061-.194.088-.294a1.017,1.017,0,0,0,.449-.8,1.37,1.37,0,0,0-.006-.359.916.916,0,0,0-.2-.458q.029-.536,0-1.132c-.013-.309-.036-.631-.072-.967-.009-.083-.02-.163-.033-.24a2.591,2.591,0,0,0-2.76-2.123h-.515a2.59,2.59,0,0,0-2.759,2.123q-.02.116-.033.24c-.035.336-.059.657-.072.967q-.025.6,0,1.132a.908.908,0,0,0-.195.458,1.369,1.369,0,0,0-.007.359,1.017,1.017,0,0,0,.45.8,5.815,5.815,0,0,0,.189.577,5,5,0,0,0,.873,1.469v.473h0c-1.648,1.807-4.371,2.136-4.371,3.637V386.1a.364.364,0,0,0,.364.364h6.3C-577.893,385.017-575.591,384.439-573.711,382.945Z" transform="translate(0 0)" fill="#aaa"/>
    <path id="Path_193111" data-name="Path 193111" d="M-541.125,386.55l0-.706a9.471,9.471,0,0,0,3.033-.6c-.69-.705-.846-1.528-1.3-4.759a3.417,3.417,0,0,0-3.471-3.2,3.417,3.417,0,0,0-3.471,3.2c-.453,3.23-.609,4.054-1.3,4.759a9.472,9.472,0,0,0,3.033.6l0,.706c-1.776,1.947-4.72,2.3-4.72,3.92v1.764a.392.392,0,0,0,.392.392H-536.8a.392.392,0,0,0,.392-.392V390.47C-536.4,388.852-539.349,388.5-541.125,386.55Z" transform="translate(-27.884 -3.972)" fill="#aaa"/>
  </g>
</svg>
