<svg xmlns="http://www.w3.org/2000/svg" width="15.053" height="13.362" viewBox="0 0 15.053 13.362">
  <path id="user-list" d="M14.855,15.465a.76.76,0,0,0-.562-.248H.76a.76.76,0,0,0-.756.83L.725,23.8a.76.76,0,0,0,.756.689H13.571a.76.76,0,0,0,.756-.689l.722-7.756A.76.76,0,0,0,14.855,15.465ZM10.06,22.9H4.994a.76.76,0,0,1-.76-.76,1.873,1.873,0,0,1,1.871-1.871h.545a1.817,1.817,0,1,1,1.752,0h.545a1.873,1.873,0,0,1,1.87,1.808c0,.021,0,.042,0,.063A.76.76,0,0,1,10.06,22.9Zm3.531-9.1a.57.57,0,0,1-.57.57H2.031a.57.57,0,1,1,0-1.14h10.99A.57.57,0,0,1,13.591,13.8Zm-1.5-2.1a.57.57,0,0,1-.57.57H3.535a.57.57,0,1,1,0-1.14h7.982A.57.57,0,0,1,12.087,11.7Z" transform="translate(0 -11.131)" fill="#aaa"/>
</svg>
