<svg width="25" height="25" viewBox="0 0 25 25" fill="none" xmlns="http://www.w3.org/2000/svg">
<circle cx="12.5" cy="12.5" r="12.5" fill="white"/>
<path d="M15.863 12.5172H9.5C9.36739 12.5172 9.24022 12.4645 9.14645 12.3708C9.05269 12.277 9 12.1498 9 12.0172C9 11.8846 9.05269 11.7574 9.14645 11.6637C9.24022 11.5699 9.36739 11.5172 9.5 11.5172H15.863C15.9956 11.5172 16.1228 11.5699 16.2166 11.6637C16.3103 11.7574 16.363 11.8846 16.363 12.0172C16.363 12.1498 16.3103 12.277 16.2166 12.3708C16.1228 12.4645 15.9956 12.5172 15.863 12.5172Z" fill="#11131E"/>
<path d="M13.348 15.0303C13.2481 15.0314 13.1501 15.0027 13.0666 14.9476C12.9832 14.8926 12.9182 14.8138 12.88 14.7214C12.8418 14.6291 12.8321 14.5274 12.8523 14.4295C12.8724 14.3316 12.9214 14.242 12.993 14.1722L15.15 12.0153L12.993 9.85825C12.8987 9.76397 12.8457 9.63609 12.8457 9.50275C12.8457 9.36942 12.8987 9.24154 12.993 9.14725C13.0873 9.05297 13.2152 9 13.3485 9C13.4818 9 13.6097 9.05297 13.704 9.14725L16.216 11.6592C16.263 11.7057 16.3003 11.7611 16.3258 11.8221C16.3513 11.8832 16.3644 11.9486 16.3644 12.0147C16.3644 12.0809 16.3513 12.1463 16.3258 12.2074C16.3003 12.2684 16.263 12.3237 16.216 12.3702L13.704 14.8823C13.6574 14.9293 13.602 14.9665 13.5408 14.9919C13.4797 15.0173 13.4142 15.0304 13.348 15.0303Z" fill="#11131E"/>
</svg>
