<svg width="50" height="50" viewBox="0 0 50 50" fill="none" xmlns="http://www.w3.org/2000/svg">
<circle cx="25" cy="25" r="25" fill="white"/>
<path d="M34.4165 25.9507H16.4146C16.0394 25.9507 15.6796 25.8017 15.4143 25.5364C15.1491 25.2711 15 24.9113 15 24.5362C15 24.161 15.1491 23.8012 15.4143 23.5359C15.6796 23.2706 16.0394 23.1216 16.4146 23.1216H34.4165C34.7916 23.1216 35.1514 23.2706 35.4167 23.5359C35.682 23.8012 35.831 24.161 35.831 24.5362C35.831 24.9113 35.682 25.2711 35.4167 25.5364C35.1514 25.8017 34.7916 25.9507 34.4165 25.9507Z" fill="#11131E"/>
<path d="M27.3012 33.0605C27.0184 33.0639 26.7411 32.9824 26.5051 32.8267C26.2691 32.671 26.0852 32.4481 25.9771 32.1868C25.869 31.9255 25.8417 31.6378 25.8987 31.3609C25.9557 31.0839 26.0943 30.8304 26.2968 30.6331L32.3993 24.5306L26.2968 18.4281C26.03 18.1614 25.8802 17.7996 25.8802 17.4224C25.8802 17.0451 26.03 16.6834 26.2968 16.4166C26.5635 16.1499 26.9253 16 27.3025 16C27.6798 16 28.0416 16.1499 28.3083 16.4166L35.4151 23.5234C35.5481 23.655 35.6538 23.8116 35.7258 23.9842C35.7979 24.1569 35.835 24.3421 35.835 24.5292C35.835 24.7162 35.7979 24.9015 35.7258 25.0741C35.6538 25.2467 35.5481 25.4034 35.4151 25.5349L28.3083 32.6418C28.1765 32.7747 28.0196 32.8802 27.8467 32.9521C27.6738 33.024 27.4884 33.0608 27.3012 33.0605Z" fill="#11131E"/>
</svg>
