<svg width="40" height="40" viewBox="0 0 40 40" fill="none" xmlns="http://www.w3.org/2000/svg">
<g clip-path="url(#clip0_45_2)">
<circle cx="20" cy="20" r="15" fill="white"/>
<path d="M19.653 1.01813e-07C15.7664 -0.000395441 11.967 1.15173 8.73516 3.31068C5.50335 5.46963 2.98432 8.53844 1.49662 12.129C0.00891256 15.7196 -0.380642 19.6708 0.377208 23.4828C1.13506 27.2948 3.00628 30.7964 5.75424 33.5449C8.5022 36.2935 12.0035 38.1654 15.8153 38.924C19.6272 39.6826 23.5784 39.2939 27.1693 37.8069C30.7602 36.3199 33.8295 33.8015 35.9891 30.5702C38.1487 27.3388 39.3016 23.5396 39.302 19.653C39.2996 14.4421 37.2288 9.4453 33.5446 5.76028C29.8603 2.07526 24.8639 0.00344485 19.653 1.01813e-07ZM18.058 13.5C18.2364 13.4946 18.4113 13.5501 18.554 13.6573C18.6967 13.7646 18.7986 13.9171 18.843 14.09L20.415 19.919L21.333 15.793C21.3752 15.6206 21.4722 15.4666 21.6095 15.3541C21.7468 15.2416 21.9169 15.1767 22.0942 15.1693C22.2715 15.1618 22.4465 15.2122 22.5927 15.3128C22.7389 15.4134 22.8485 15.5587 22.905 15.727L23.887 18.479L24.674 16.448C24.7375 16.3046 24.8398 16.1819 24.9693 16.0935C25.0988 16.0051 25.2504 15.9546 25.407 15.9478C25.5637 15.9409 25.7191 15.9779 25.8559 16.0546C25.9926 16.1314 26.1052 16.2447 26.181 16.382L27.163 18.413L28.014 17.167C28.0749 17.0609 28.1601 16.9709 28.2626 16.9041C28.3651 16.8374 28.4819 16.7959 28.6035 16.7831C28.7252 16.7704 28.8481 16.7866 28.9622 16.8306C29.0763 16.8745 29.1784 16.9449 29.26 17.036L30.701 18.413H32.011C32.2212 18.4234 32.4194 18.5142 32.5645 18.6667C32.7096 18.8191 32.7905 19.0215 32.7905 19.232C32.7905 19.4425 32.7096 19.6449 32.5645 19.7973C32.4194 19.9498 32.2212 20.0406 32.011 20.051H30.372C30.2593 20.0635 30.1452 20.0459 30.0416 19.9998C29.9379 19.9538 29.8483 19.881 29.782 19.789L28.8 18.871L27.752 20.509C27.6687 20.6257 27.5575 20.7198 27.4285 20.7825C27.2995 20.8452 27.1568 20.8746 27.0136 20.868C26.8703 20.8615 26.7309 20.8191 26.6082 20.7449C26.4855 20.6707 26.3833 20.5669 26.311 20.443L25.524 18.805L24.542 21.164C24.4877 21.3253 24.3824 21.4646 24.242 21.5609C24.1016 21.6572 23.9338 21.7053 23.7637 21.6978C23.5936 21.6904 23.4306 21.6278 23.2991 21.5196C23.1677 21.4114 23.075 21.2635 23.035 21.098L22.314 18.998L21.332 23.518C21.2883 23.6934 21.1872 23.8492 21.0448 23.9605C20.9024 24.0718 20.7268 24.1323 20.546 24.1323C20.3652 24.1323 20.1897 24.0718 20.0472 23.9605C19.9048 23.8492 19.8037 23.6934 19.76 23.518L18.122 17.688L16.422 25.155C16.3745 25.341 16.2646 25.5051 16.1107 25.6198C15.9568 25.7345 15.7681 25.7929 15.5763 25.7851C15.3845 25.7774 15.2011 25.704 15.0569 25.5773C14.9127 25.4506 14.8164 25.2782 14.784 25.089L13.735 19.26L12.294 23.583C12.2375 23.7513 12.1279 23.8966 11.9817 23.9972C11.8355 24.0978 11.6605 24.1482 11.4832 24.1407C11.3059 24.1333 11.1358 24.0684 10.9985 23.9559C10.8612 23.8434 10.7642 23.6894 10.722 23.517L9.87101 20.176V20.253C9.83254 20.4295 9.73185 20.5862 9.58734 20.6945C9.44284 20.8028 9.26418 20.8556 9.08401 20.843H7.44501C7.32939 20.8649 7.21035 20.8611 7.09639 20.8317C6.98242 20.8023 6.87634 20.7482 6.78571 20.6731C6.69507 20.5981 6.62212 20.5039 6.57204 20.3974C6.52196 20.2909 6.496 20.1747 6.496 20.057C6.496 19.9393 6.52196 19.8231 6.57204 19.7166C6.62212 19.6101 6.69507 19.5159 6.78571 19.4409C6.87634 19.3658 6.98242 19.3117 7.09639 19.2823C7.21035 19.2529 7.32939 19.2491 7.44501 19.271H8.42901L9.08301 16.584C9.11772 16.4009 9.21523 16.2357 9.35872 16.1169C9.50222 15.998 9.68269 15.933 9.86901 15.933C10.0553 15.933 10.2358 15.998 10.3793 16.1169C10.5228 16.2357 10.6203 16.4009 10.655 16.584L11.638 20.384L13.21 15.733C13.2671 15.5653 13.3769 15.4206 13.523 15.3206C13.6691 15.2205 13.8437 15.1704 14.0207 15.1779C14.1977 15.1853 14.3675 15.2498 14.5047 15.3618C14.6419 15.4737 14.7392 15.6271 14.782 15.799L15.698 20.909L17.27 14.162C17.2999 13.9761 17.396 13.8072 17.5407 13.6867C17.6854 13.5661 17.8687 13.5019 18.057 13.506L18.058 13.5Z" fill="#FF4E4E"/>
</g>
<defs>
<clipPath id="clip0_45_2">
<rect width="39.301" height="39.301" fill="white"/>
</clipPath>
</defs>
</svg>
