<svg xmlns="http://www.w3.org/2000/svg" width="39.301" height="39.301" viewBox="0 0 39.301 39.301">
  <path id="noun-voice-1720490" d="M89.651.047A19.651,19.651,0,1,0,109.3,19.7,19.662,19.662,0,0,0,89.651.047Zm-1.595,13.5a.786.786,0,0,1,.785.59l1.572,5.829.918-4.126a.819.819,0,0,1,1.572-.066l.982,2.752.787-2.031a.842.842,0,0,1,1.507-.066l.982,2.031.851-1.246a.773.773,0,0,1,1.246-.131l1.441,1.377h1.31a.82.82,0,0,1,0,1.638H100.37a.64.64,0,0,1-.59-.262l-.982-.918-1.048,1.638a.859.859,0,0,1-1.441-.066l-.787-1.638-.982,2.359a.785.785,0,0,1-1.507-.066l-.721-2.1-.982,4.52a.81.81,0,0,1-1.572,0l-1.638-5.83-1.7,7.467a.838.838,0,0,1-1.638-.066l-1.049-5.829-1.441,4.323a.819.819,0,0,1-1.572-.066l-.851-3.341V20.3a.752.752,0,0,1-.787.59H77.443a.8.8,0,1,1,0-1.572h.984l.654-2.687a.8.8,0,0,1,1.572,0l.983,3.8,1.572-4.651a.82.82,0,0,1,1.572.066l.916,5.11,1.572-6.747a.78.78,0,0,1,.787-.656Z" transform="translate(-70 -0.047)" fill="#ff4e4e"/>
</svg>
